# xmcd CD database file
#
# Track frame offsets:
#	182
#	89312
#	131122
#	173040
#
# Disc length: 2988 seconds
#
# Revision: 0
# Processed by: cddbd v1.5.2PL0 Copyright (c) Steve Scherf et al.
# Submitted via: CDex 1.70beta2
#
DISCID=2d0baa04
DTITLE=Archie Shepp - The House I Live In
DYEAR=1963
DGENRE=Jazz
TTITLE0=You Stepped Out Of A Dream
TTITLE1=I Should Care
TTITLE2=The House I Live In
TTITLE3=Sweet Georgia Brown
EXTD=YEAR: 1963
EXTT0=
EXTT1=
EXTT2=
EXTT3=
PLAYORDER=
